# xmcd
#
# Track frame offsets: 
#        150
#        24210
#        46865
#
# Disc length: 943 seconds
#
# Revision: 8
# Processed by: cddbd v1.5.1PL0 Copyright (c) Steve Scherf et al.
# Submitted via: ExactAudioCopy v0.95a5
#
DISCID=1503ad03
DTITLE=Tomoyo Yoshida - Mabushii Hitomi
DYEAR=1994
DGENRE=JPop
TTITLE0=Mabushii Hitomi
TTITLE1=Nana Iro Ni Kagayaite
TTITLE2=Mabushii Hitomi (Karaoke)
EXTD=1992 BOY Records BOY 8828-12\n\nbernhard mikulski\n\nComposed and
EXTD=arranged by Joachim Wilhelm\nText and voices by Klaus Bohm, Uwe 
EXTD=Dusterhoffft\nProduced, remixed and engineered by Giora Schein\nR
EXTD=ecorded at ParkStudio (Bad Soden - Salmunster]\nCoverby Bit Bits 
EXTD=Brain\nHello to Dirk Feineisen, Michael Malow, Ay Bisimis,\nAndre
EXTD=asTomalla.\nPublished byMichael Zosel Musikverlag YEAR: 1997
EXTT0=
EXTT1=
EXTT2=
PLAYORDER=
